<mxfile host="app.diagrams.net" modified="2023-11-05T10:32:47.490Z" agent="Mozilla/5.0 (Windows NT 10.0; Win64; x64) AppleWebKit/537.36 (KHTML, like Gecko) Chrome/118.0.0.0 Safari/537.36" etag="VFPYGyw07dUxZ-XrFn09" version="22.0.8" type="device">
  <diagram name="Page-1" id="jgVxlBGJ3A0HJ-238XrS">
    <mxGraphModel dx="1194" dy="750" grid="1" gridSize="10" guides="1" tooltips="1" connect="1" arrows="1" fold="1" page="1" pageScale="1" pageWidth="827" pageHeight="1169" math="0" shadow="0">
      <root>
        <mxCell id="0" />
        <mxCell id="1" parent="0" />
        <mxCell id="o0skHM7eKmP1OPAFWJ9O-18" style="edgeStyle=orthogonalEdgeStyle;rounded=0;orthogonalLoop=1;jettySize=auto;html=1;" edge="1" parent="1" source="o0skHM7eKmP1OPAFWJ9O-1" target="o0skHM7eKmP1OPAFWJ9O-3">
          <mxGeometry relative="1" as="geometry">
            <Array as="points">
              <mxPoint x="360" y="230" />
              <mxPoint x="360" y="230" />
            </Array>
          </mxGeometry>
        </mxCell>
        <mxCell id="o0skHM7eKmP1OPAFWJ9O-19" style="edgeStyle=orthogonalEdgeStyle;rounded=0;orthogonalLoop=1;jettySize=auto;html=1;entryX=0;entryY=0.5;entryDx=0;entryDy=0;" edge="1" parent="1" source="o0skHM7eKmP1OPAFWJ9O-1" target="o0skHM7eKmP1OPAFWJ9O-4">
          <mxGeometry relative="1" as="geometry" />
        </mxCell>
        <mxCell id="o0skHM7eKmP1OPAFWJ9O-23" style="edgeStyle=orthogonalEdgeStyle;rounded=0;orthogonalLoop=1;jettySize=auto;html=1;" edge="1" parent="1" source="o0skHM7eKmP1OPAFWJ9O-1" target="o0skHM7eKmP1OPAFWJ9O-2">
          <mxGeometry relative="1" as="geometry">
            <Array as="points">
              <mxPoint x="330" y="230" />
              <mxPoint x="330" y="120" />
            </Array>
          </mxGeometry>
        </mxCell>
        <mxCell id="o0skHM7eKmP1OPAFWJ9O-1" value="Employee" style="rounded=1;whiteSpace=wrap;html=1;" vertex="1" parent="1">
          <mxGeometry x="150" y="200" width="120" height="60" as="geometry" />
        </mxCell>
        <mxCell id="o0skHM7eKmP1OPAFWJ9O-2" value="ID" style="ellipse;whiteSpace=wrap;html=1;" vertex="1" parent="1">
          <mxGeometry x="400" y="80" width="120" height="80" as="geometry" />
        </mxCell>
        <mxCell id="o0skHM7eKmP1OPAFWJ9O-3" value="Number" style="ellipse;whiteSpace=wrap;html=1;" vertex="1" parent="1">
          <mxGeometry x="400" y="200" width="120" height="80" as="geometry" />
        </mxCell>
        <mxCell id="o0skHM7eKmP1OPAFWJ9O-4" value="Name" style="ellipse;whiteSpace=wrap;html=1;" vertex="1" parent="1">
          <mxGeometry x="400" y="330" width="120" height="80" as="geometry" />
        </mxCell>
        <mxCell id="o0skHM7eKmP1OPAFWJ9O-5" value="Email" style="ellipse;whiteSpace=wrap;html=1;" vertex="1" parent="1">
          <mxGeometry x="400" y="460" width="120" height="80" as="geometry" />
        </mxCell>
        <mxCell id="o0skHM7eKmP1OPAFWJ9O-6" value="Salary" style="ellipse;whiteSpace=wrap;html=1;" vertex="1" parent="1">
          <mxGeometry x="400" y="600" width="120" height="80" as="geometry" />
        </mxCell>
        <mxCell id="o0skHM7eKmP1OPAFWJ9O-28" style="edgeStyle=orthogonalEdgeStyle;rounded=0;orthogonalLoop=1;jettySize=auto;html=1;entryX=0;entryY=0.5;entryDx=0;entryDy=0;" edge="1" parent="1" source="o0skHM7eKmP1OPAFWJ9O-7" target="o0skHM7eKmP1OPAFWJ9O-25">
          <mxGeometry relative="1" as="geometry" />
        </mxCell>
        <mxCell id="o0skHM7eKmP1OPAFWJ9O-7" value="Employee" style="rounded=1;whiteSpace=wrap;html=1;" vertex="1" parent="1">
          <mxGeometry x="400" y="760" width="120" height="60" as="geometry" />
        </mxCell>
        <mxCell id="o0skHM7eKmP1OPAFWJ9O-20" style="edgeStyle=orthogonalEdgeStyle;rounded=0;orthogonalLoop=1;jettySize=auto;html=1;entryX=-0.008;entryY=0.65;entryDx=0;entryDy=0;entryPerimeter=0;" edge="1" parent="1" source="o0skHM7eKmP1OPAFWJ9O-1" target="o0skHM7eKmP1OPAFWJ9O-5">
          <mxGeometry relative="1" as="geometry" />
        </mxCell>
        <mxCell id="o0skHM7eKmP1OPAFWJ9O-21" style="edgeStyle=orthogonalEdgeStyle;rounded=0;orthogonalLoop=1;jettySize=auto;html=1;entryX=0;entryY=0.75;entryDx=0;entryDy=0;entryPerimeter=0;" edge="1" parent="1" source="o0skHM7eKmP1OPAFWJ9O-1" target="o0skHM7eKmP1OPAFWJ9O-6">
          <mxGeometry relative="1" as="geometry" />
        </mxCell>
        <mxCell id="o0skHM7eKmP1OPAFWJ9O-22" style="edgeStyle=orthogonalEdgeStyle;rounded=0;orthogonalLoop=1;jettySize=auto;html=1;entryX=0.008;entryY=0.65;entryDx=0;entryDy=0;entryPerimeter=0;" edge="1" parent="1">
          <mxGeometry relative="1" as="geometry">
            <mxPoint x="270" y="230" as="sourcePoint" />
            <mxPoint x="400.96000000000004" y="799" as="targetPoint" />
            <Array as="points">
              <mxPoint x="335" y="230" />
              <mxPoint x="335" y="799" />
            </Array>
          </mxGeometry>
        </mxCell>
        <mxCell id="o0skHM7eKmP1OPAFWJ9O-24" value="ID" style="ellipse;whiteSpace=wrap;html=1;" vertex="1" parent="1">
          <mxGeometry x="560" y="650" width="120" height="80" as="geometry" />
        </mxCell>
        <mxCell id="o0skHM7eKmP1OPAFWJ9O-25" value="Number" style="ellipse;whiteSpace=wrap;html=1;" vertex="1" parent="1">
          <mxGeometry x="560" y="770" width="120" height="80" as="geometry" />
        </mxCell>
        <mxCell id="o0skHM7eKmP1OPAFWJ9O-26" value="Name" style="ellipse;whiteSpace=wrap;html=1;" vertex="1" parent="1">
          <mxGeometry x="560" y="890" width="120" height="80" as="geometry" />
        </mxCell>
        <mxCell id="o0skHM7eKmP1OPAFWJ9O-27" style="edgeStyle=orthogonalEdgeStyle;rounded=0;orthogonalLoop=1;jettySize=auto;html=1;entryX=-0.033;entryY=0.625;entryDx=0;entryDy=0;entryPerimeter=0;" edge="1" parent="1" source="o0skHM7eKmP1OPAFWJ9O-7" target="o0skHM7eKmP1OPAFWJ9O-24">
          <mxGeometry relative="1" as="geometry">
            <Array as="points">
              <mxPoint x="540" y="790" />
              <mxPoint x="540" y="700" />
            </Array>
          </mxGeometry>
        </mxCell>
        <mxCell id="o0skHM7eKmP1OPAFWJ9O-29" style="edgeStyle=orthogonalEdgeStyle;rounded=0;orthogonalLoop=1;jettySize=auto;html=1;entryX=-0.008;entryY=0.613;entryDx=0;entryDy=0;entryPerimeter=0;" edge="1" parent="1" source="o0skHM7eKmP1OPAFWJ9O-7" target="o0skHM7eKmP1OPAFWJ9O-26">
          <mxGeometry relative="1" as="geometry" />
        </mxCell>
      </root>
    </mxGraphModel>
  </diagram>
</mxfile>
